<?xml version="1.0" standalone="no"?>
<!DOCTYPE svg PUBLIC "-//W3C//DTD SVG 20010904//EN"
 "http://www.w3.org/TR/2001/REC-SVG-20010904/DTD/svg10.dtd">
<svg version="1.0" xmlns="http://www.w3.org/2000/svg"
 width="72.000000pt" height="72.000000pt" viewBox="0 0 72.000000 72.000000"
 preserveAspectRatio="xMidYMid meet">
<metadata>
Created by potrace 1.11, written by Peter Selinger 2001-2013
</metadata>
<g transform="translate(0.000000,72.000000) scale(0.100000,-0.100000)"
fill="#000000" stroke="none">
<path d="M147 556 c-8 -20 14 -26 89 -26 36 0 64 -4 64 -10 0 -12 0 -12 -120
-14 -82 -1 -95 -3 -98 -18 -4 -20 -5 -19 83 -23 84 -3 85 -3 85 -20 0 -18 6
-17 -120 -20 -126 -3 -120 -2 -120 -20 0 -18 -5 -16 85 -20 89 -3 85 -2 85
-25 0 -11 -3 -20 -7 -21 -13 -2 -66 -6 -91 -8 -17 -1 -22 -6 -20 -19 3 -14 16
-17 86 -18 84 -1 109 -10 99 -38 -6 -15 -29 -21 -69 -17 -9 1 -19 -3 -23 -9
-14 -22 15 -34 75 -31 34 1 60 -2 60 -7 0 -6 -9 -8 -20 -5 -15 4 -20 0 -20
-16 0 -20 4 -21 155 -21 l155 0 75 101 c41 56 75 105 75 109 0 4 -34 53 -75
108 l-75 102 -204 0 c-167 0 -205 -3 -209 -14z m337 -61 c-29 -38 -33 -38 -64
5 l-21 30 56 0 56 0 -27 -35z m-86 -29 c31 -43 31 -45 14 -66 -15 -18 -25 -21
-84 -18 l-66 3 46 63 c25 34 49 62 52 62 4 0 21 -20 38 -44z m212 -29 c51 -69
56 -91 26 -116 -11 -9 -18 -6 -34 14 -17 22 -21 23 -32 10 -11 -13 -9 -20 9
-38 11 -13 21 -27 21 -31 0 -11 -43 -66 -51 -66 -4 0 -33 34 -63 76 l-55 77
47 61 c66 85 66 85 74 83 4 -1 30 -33 58 -70z m-156 -172 l56 -75 -72 0 c-71
0 -74 1 -95 33 -11 17 -35 51 -53 75 l-32 42 70 0 70 0 56 -75z"/>
<path d="M430 511 c0 -18 26 -31 38 -19 18 18 15 23 -13 26 -14 1 -25 -2 -25
-7z"/>
</g>
</svg>
